# xmcd CD database file
#
# Track frame offsets:
#	150
#	19564
#	38184
#	56407
#	75464
#	93929
#	113049
#	129617
#	151663
#	169607
#
# Disc length: 2507 seconds
#
# Revision: 0
# Processed by: cddbd v1.5.2PL0 Copyright (c) Steve Scherf et al.
# Submitted via: CDex 1.51
#
DISCID=6709c90a
DTITLE=Maquinaria Band - Imparable
DYEAR=1999
DGENRE=Salsa
TTITLE0=Coge la banana
TTITLE1=Y me hace el corazon
TTITLE2=Me derrito
TTITLE3=El ultimo beso
TTITLE4=En paralelo
TTITLE5=Swing sabroso
TTITLE6=Confusion
TTITLE7=Desconsolado
TTITLE8=no me quiere, no
TTITLE9=tiene esa nena
EXTD=YEAR: 1999
EXTT0=
EXTT1=
EXTT2=
EXTT3=
EXTT4=
EXTT5=
EXTT6=
EXTT7=
EXTT8=
EXTT9=
PLAYORDER=
